<svg xmlns="http://www.w3.org/2000/svg" viewBox="0 0 50 50"><defs><style>.cls-1{fill:#1d71b8;}.cls-2,.cls-4{fill:none;stroke-miterlimit:10;stroke-width:5px;}.cls-2{stroke:#be1622;}.cls-3{fill:#be1622;}.cls-4{stroke:#1d71b8;}</style></defs><g id="Circuit"><path class="cls-1" d="M8.32,48.05c3.92,0,7.68-3.45,7.5-7.5a7.63,7.63,0,0,0-7.5-7.5c-3.93,0-7.68,3.45-7.5,7.5a7.63,7.63,0,0,0,7.5,7.5Z"/><path class="cls-2" d="M25.86,50V26a1,1,0,0,1,1-1L50,25"/><path class="cls-3" d="M30.1,31.85h0l-1.79.76h0l-2,.27h0l-2-.26h0l-1.79-.76h0l-1.51-1.18h0l-1.17-1.52v0l-.76-1.79s0,0,0,0l-.27-2v0l.27-2a0,0,0,0,0,0,0l.76-1.79h0l1.17-1.51h0L22.57,19h0l1.79-.75h0l2-.27h0l2,.27h0l1.79.75h0a5.51,5.51,0,0,0-2.79-.89,5.64,5.64,0,0,0-3,.13,5.71,5.71,0,0,0-2.55,1.34,5.69,5.69,0,0,0-1.93,2.11l-.76,1.79a7.71,7.71,0,0,0,0,4l.76,1.79A7.54,7.54,0,0,0,22.53,32a7.91,7.91,0,0,0,1.8.76h0s2,.27,2,.27a7.1,7.1,0,0,0,2-.27h0L30.14,32a7.54,7.54,0,0,0,2.71-2.7,7,7,0,0,0,.76-1.81,9.18,9.18,0,0,0,.27-2v0a19.21,19.21,0,0,0-.27-2h0a11,11,0,0,0-.76-1.81,5.53,5.53,0,0,0-1.19-1.53l-1.52-1.18h0l-1.79-.76h0l-2-.27a7.52,7.52,0,0,0-3.81,1,5.65,5.65,0,0,0-2.1,1.93,5.51,5.51,0,0,0-1.34,2.55,5.64,5.64,0,0,0-.14,3,5.61,5.61,0,0,0,.89,2.79L21,30.68a7.44,7.44,0,0,0,3.31,1.92l2,.27a7.4,7.4,0,0,0,3.78-1Z"/><path class="cls-4" d="M47.5,0V7.7a1,1,0,0,1-1,1H9.08a1,1,0,0,0-1,1V40.17a1,1,0,0,0,1,1H50"/></g></svg>