<svg xmlns="http://www.w3.org/2000/svg" viewBox="0 0 300 300"><defs><style>.cls-1,.cls-11,.cls-13,.cls-15,.cls-17,.cls-2,.cls-4,.cls-7,.cls-9{fill:none;stroke-miterlimit:10;}.cls-1{stroke:#063;}.cls-2{stroke:#1d1d1b;}.cls-3{fill:#1d1d1b;}.cls-4{stroke:#be1622;}.cls-5{fill:#be1622;}.cls-6{fill:#063;}.cls-7{stroke:#1d71b8;}.cls-8{fill:#1d71b8;}.cls-9{stroke:#2d2e83;}.cls-10{fill:#2d2e83;}.cls-11{stroke:#432918;}.cls-12{fill:#432918;}.cls-13{stroke:#662483;}.cls-14{fill:#662483;}.cls-15{stroke:#312783;}.cls-16{fill:#312783;}.cls-17{stroke:#e6332a;}.cls-18{fill:#e6332a;}</style></defs><g id="Connectors"><path class="cls-1" d="M61,134.73H38.17a1,1,0,0,1-1-1v-21.9a1,1,0,0,1,1-1H52.83a1,1,0,0,0,1-1V83.48a1,1,0,0,0-1-1H38.17a1,1,0,0,1-1-1V58.33a1,1,0,0,1,1-1H48.44a1,1,0,0,0,1-1v-9a1,1,0,0,1,1-1H117.6a1,1,0,0,1,1,1V64.89a1,1,0,0,0,1,1h7.8a1,1,0,0,1,1,1v58.74"/><g id="Black"><path class="cls-2" d="M74.84,92.85c0,29.64,0,100,0,106a1,1,0,0,0,.29.7l.42.41a1,1,0,0,0,.7.29h72.18"/><path class="cls-3" d="M148.42,202.75c3.21,0,3.22-5,0-5s-3.23,5,0,5Z"/><path class="cls-3" d="M74.84,95.33c3.22,0,3.22-5,0-5s-3.22,5,0,5Z"/><path class="cls-3" d="M75,186.5c3.22,0,3.22-5,0-5s-3.22,5,0,5Z"/><path class="cls-2" d="M75,184h3.17a1.05,1.05,0,0,1,.71.29l.41.42a1,1,0,0,1,.29.7v3.43a1,1,0,0,0,.3.7l.41.42a1,1,0,0,0,.71.29H92.08s1-.45,1-1V131.17a1,1,0,0,1,1-1h14.17a1,1,0,0,0,1-1l0-4.19a1,1,0,0,0-1-1H94.94"/><path class="cls-3" d="M94.93,168.71l0,0a1.85,1.85,0,0,0-.8-.52,2.32,2.32,0,0,0-1.93,0,1.85,1.85,0,0,0-.8.52l-.39.51a2.43,2.43,0,0,0-.34,1.26l.09.66a2.44,2.44,0,0,0,.64,1.11l0,0a2.4,2.4,0,0,0,2.73.51,1.83,1.83,0,0,0,.8-.51l.4-.51a2.53,2.53,0,0,0,.34-1.26l-.09-.67a2.52,2.52,0,0,0-.65-1.1Z"/><path class="cls-3" d="M95.13,121.4h0a2.43,2.43,0,0,0-2.28,1.53,1.9,1.9,0,0,0-.22,1l.09.66a2.52,2.52,0,0,0,.65,1.1l.5.39a2.54,2.54,0,0,0,1.26.35h0a1.88,1.88,0,0,0,1-.22,2.3,2.3,0,0,0,1.32-1.32,1.88,1.88,0,0,0,.22-1l-.09-.67a2.52,2.52,0,0,0-.65-1.1l-.5-.39a2.43,2.43,0,0,0-1.26-.34Z"/></g><g id="Orange"><path class="cls-4" d="M171.73,173.88v9.83a1,1,0,0,1-1,1H86.37a1,1,0,0,1-.71-.29l-.41-.42a1,1,0,0,1-.3-.7V104.18a1,1,0,0,1,1-1H139a1,1,0,0,1,1,1v21.16"/><path class="cls-5" d="M140.3,128.13c3.21,0,3.22-5,0-5s-3.23,5,0,5Z"/><path class="cls-5" d="M84.89,117.64c3.22,0,3.23-5,0-5s-3.22,5,0,5Z"/><path class="cls-5" d="M174.26,174.88l.11-.35a1.9,1.9,0,0,0,0-1,2.26,2.26,0,0,0-.94-1.63,1.94,1.94,0,0,0-.85-.45l-.67-.09a2.53,2.53,0,0,0-1.26.34l-.5.39a2.55,2.55,0,0,0-.65,1.11l-.11.35a1.86,1.86,0,0,0-.05,1,1.8,1.8,0,0,0,.3.93,2.67,2.67,0,0,0,1.49,1.15l.67.09a2.43,2.43,0,0,0,1.26-.34l.5-.39a2.52,2.52,0,0,0,.65-1.1Z"/><line class="cls-4" x1="84.89" y1="115.14" x2="118.6" y2="115.14"/><path class="cls-5" d="M118.37,117.4c3.22,0,3.22-5,0-5s-3.22,5,0,5Z"/></g><g id="Green"><path class="cls-1" d="M185,173.86c.12.13,0,11.25,0,14.69a1,1,0,0,0,1,1h22.6a1,1,0,0,0,1-1V104.18a1,1,0,0,0-1-1H160.66a1,1,0,0,0-1,1v35.73a1,1,0,0,1-1,1H141.3a1,1,0,0,0-1,1v65.3a1,1,0,0,1-1,1L86.18,208"/><path class="cls-1" d="M140.3,161.32h-11a1,1,0,0,1-1-1V123.25a1,1,0,0,0-1-1h-8.79a1,1,0,0,0-1,1V164"/><path class="cls-6" d="M117.44,166.16h.11a1.9,1.9,0,0,0,1-.22,1.82,1.82,0,0,0,.8-.52,1.85,1.85,0,0,0,.52-.8,1.88,1.88,0,0,0,.21-1L120,163a2.5,2.5,0,0,0-.64-1.1l-.51-.39a2.43,2.43,0,0,0-1.26-.34h-.11a1.89,1.89,0,0,0-1,.21,1.85,1.85,0,0,0-.8.52,1.82,1.82,0,0,0-.52.8,1.8,1.8,0,0,0-.21,1l.09.66a2.36,2.36,0,0,0,.64,1.1l.5.4a2.54,2.54,0,0,0,1.27.34Z"/><path class="cls-6" d="M128.28,124.75h.12a2,2,0,0,0,1-.21,2,2,0,0,0,.81-.52,1.93,1.93,0,0,0,.51-.81,1.84,1.84,0,0,0,.22-1l-.09-.66a2.53,2.53,0,0,0-.64-1.11l-.51-.39a2.53,2.53,0,0,0-1.26-.34h-.12a1.88,1.88,0,0,0-1,.22,1.83,1.83,0,0,0-.8.51,1.85,1.85,0,0,0-.52.81,1.88,1.88,0,0,0-.22,1l.09.67a2.52,2.52,0,0,0,.65,1.1l.5.39a2.43,2.43,0,0,0,1.26.34Z"/><path class="cls-6" d="M142.06,159.32l-.11-.11a2.57,2.57,0,0,0-3.54,0l-.39.5a2.43,2.43,0,0,0-.34,1.26l.09.67a2.5,2.5,0,0,0,.64,1.1l.12.12a2.69,2.69,0,0,0,1.77.73,2,2,0,0,0,1-.21,2,2,0,0,0,.8-.52l.4-.51a2.53,2.53,0,0,0,.34-1.26l-.09-.66a2.55,2.55,0,0,0-.65-1.11Z"/><path class="cls-6" d="M86.29,210.13c3.22,0,3.23-5,0-5s-3.22,5,0,5Z"/><path class="cls-6" d="M182.47,174v.11a1.89,1.89,0,0,0,.21,1,1.85,1.85,0,0,0,.52.8,1.82,1.82,0,0,0,.8.52,1.8,1.8,0,0,0,1,.21l.66-.09a2.44,2.44,0,0,0,1.11-.64l.39-.5a2.54,2.54,0,0,0,.34-1.27V174a2.83,2.83,0,0,0-.73-1.77,2,2,0,0,0-.81-.52,1.88,1.88,0,0,0-1-.21l-.67.09a2.5,2.5,0,0,0-1.1.64l-.39.51a2.43,2.43,0,0,0-.34,1.26Z"/><path class="cls-6" d="M159.64,118.22c3.21,0,3.22-5,0-5s-3.23,5,0,5Z"/></g><g id="Blue"><path class="cls-7" d="M148.43,116.19v18a1,1,0,0,1-1,1H106.89a1,1,0,0,0-1,1v33.26a1,1,0,0,0,1,1h54a1,1,0,0,0,1-1V147.54a1,1,0,0,1,1-1h23.38V117.77a1,1,0,0,0-1-1H171.39a1,1,0,0,0-1,1v17.54"/><path class="cls-7" d="M186.25,146.54h30.14a1,1,0,0,0,1-1V84a1,1,0,0,0-1-1H129.68"/><path class="cls-7" d="M217.09,115.14H225a1,1,0,0,1,1,1v67.57a1,1,0,0,1-1,1h-6.63a1,1,0,0,0-1,1v13.54a1,1,0,0,1-1,1H162.88"/><path class="cls-8" d="M150.84,116.07V116a2.43,2.43,0,0,0-1.53-2.28,1.9,1.9,0,0,0-1-.22l-.66.09a2.52,2.52,0,0,0-1.1.65l-.39.5a2.54,2.54,0,0,0-.35,1.26v.12a2.83,2.83,0,0,0,.74,1.77,1.83,1.83,0,0,0,.8.51,1.88,1.88,0,0,0,1,.22l.67-.09a2.5,2.5,0,0,0,1.1-.64l.39-.51a2.43,2.43,0,0,0,.34-1.26Z"/><path class="cls-8" d="M106.12,172.34c3.22,0,3.22-5,0-5s-3.22,5,0,5Z"/><path class="cls-8" d="M170.16,132.23h-.24a1.88,1.88,0,0,0-1,.22,2.16,2.16,0,0,0-1.32,1.32,1.88,1.88,0,0,0-.22,1l.09.67a2.5,2.5,0,0,0,.64,1.1l.51.39a2.43,2.43,0,0,0,1.26.34h.24a2,2,0,0,0,1-.21,2.61,2.61,0,0,0,1.54-2.29l-.09-.66a2.55,2.55,0,0,0-.65-1.11l-.5-.39a2.53,2.53,0,0,0-1.26-.34Z"/><path class="cls-8" d="M186.25,133.15h.12a1.88,1.88,0,0,0,1-.22,2.16,2.16,0,0,0,1.32-1.32,1.88,1.88,0,0,0,.22-1l-.09-.67a2.6,2.6,0,0,0-.64-1.1l-.51-.39a2.43,2.43,0,0,0-1.26-.34h-.12a2,2,0,0,0-1,.21,2.05,2.05,0,0,0-.81.52,1.93,1.93,0,0,0-.51.81,1.86,1.86,0,0,0-.22,1l.09.66a2.48,2.48,0,0,0,.64,1.11l.51.39a2.53,2.53,0,0,0,1.26.34Z"/><path class="cls-8" d="M186.37,143.78h-.24a2,2,0,0,0-1,.21,2.61,2.61,0,0,0-1.54,2.29l.09.66a2.55,2.55,0,0,0,.65,1.11l.5.39a2.53,2.53,0,0,0,1.26.34h.24a1.88,1.88,0,0,0,1-.22,2.16,2.16,0,0,0,1.32-1.32,1.88,1.88,0,0,0,.22-1l-.09-.67a2.6,2.6,0,0,0-.64-1.1l-.51-.39a2.43,2.43,0,0,0-1.26-.34Z"/><path class="cls-8" d="M129.57,85c3.21,0,3.22-5,0-5s-3.23,5,0,5Z"/><path class="cls-8" d="M162.88,202.75c3.22,0,3.22-5,0-5s-3.22,5,0,5Z"/><path class="cls-7" d="M171.73,161.09h28.52a1,1,0,0,0,1-1V131.65a1,1,0,0,0-1-1H186.37"/><path class="cls-8" d="M173.77,159.32l-.09-.09a1.83,1.83,0,0,0-.8-.51,2.58,2.58,0,0,0-2.73.51l-.39.51a2.43,2.43,0,0,0-.34,1.26l.09.66a2.39,2.39,0,0,0,.64,1.11l.08.08a2,2,0,0,0,.81.52,2.3,2.3,0,0,0,1.92,0,2,2,0,0,0,.81-.52l.39-.5a2.57,2.57,0,0,0,.34-1.27l-.09-.66a2.5,2.5,0,0,0-.64-1.1Z"/></g><g id="Purple"><path class="cls-9" d="M93.23,96V81.67a1,1,0,0,1,1-1h19.33a1,1,0,0,1,1,1V95a1,1,0,0,0,1,1h76.22"/><path class="cls-10" d="M93.33,98.72h.11a1.89,1.89,0,0,0,1-.21,1.85,1.85,0,0,0,.8-.52,1.82,1.82,0,0,0,.52-.8,1.8,1.8,0,0,0,.21-1l-.08-.66a2.55,2.55,0,0,0-.65-1.11l-.5-.39a2.54,2.54,0,0,0-1.27-.34h-.11a1.88,1.88,0,0,0-1,.22,1.83,1.83,0,0,0-.8.51,1.85,1.85,0,0,0-.52.81,1.88,1.88,0,0,0-.22,1l.09.67a2.52,2.52,0,0,0,.65,1.1l.5.39a2.43,2.43,0,0,0,1.26.34Z"/><path class="cls-10" d="M191.78,98.5c3.22,0,3.22-5,0-5s-3.22,5,0,5Z"/></g><g id="Brown"><path class="cls-11" d="M217.39,207.22h-61.7a1,1,0,0,0-1,1v10.52a1,1,0,0,1-1,1H76.41a1,1,0,0,0-.7.29l-.42.41a1.05,1.05,0,0,0-.29.71v12.62a1,1,0,0,0,.29.7l.41.42a1,1,0,0,0,.7.29c5.91,0,74.14,0,82.61,0a1,1,0,0,0,1-1v-12a1,1,0,0,1,1-1h62.55a1,1,0,0,1,1,1v8.1a1,1,0,0,1-1,1H187.33"/><path class="cls-12" d="M189.72,231.22v-.11a1.88,1.88,0,0,0-.21-1,2,2,0,0,0-.52-.81,2.83,2.83,0,0,0-1.77-.73l-.66.09a2.53,2.53,0,0,0-1.11.64l-.39.51a2.53,2.53,0,0,0-.34,1.26v.11a2.83,2.83,0,0,0,.73,1.77,2,2,0,0,0,.81.52,1.88,1.88,0,0,0,1,.21l.67-.09A2.5,2.5,0,0,0,189,233l.39-.51a2.43,2.43,0,0,0,.34-1.26Z"/><path class="cls-12" d="M218.59,209.59l.22-.11a1.88,1.88,0,0,0,.7-.64A1.94,1.94,0,0,0,220,208a2,2,0,0,0,0-1,2,2,0,0,0-.3-.93l-.39-.51a2.48,2.48,0,0,0-1.11-.64l-.66-.09a2.53,2.53,0,0,0-1.26.34l-.22.12a1.83,1.83,0,0,0-.71.64,1.78,1.78,0,0,0-.44.85,1.89,1.89,0,0,0,0,1,2,2,0,0,0,.3.93l.39.5a2.41,2.41,0,0,0,1.1.64l.67.09a2.43,2.43,0,0,0,1.26-.34Z"/></g><path class="cls-13" d="M170.16,231.22v11.22a1,1,0,0,1-1,1H94.44a1,1,0,0,1-1-1V227.78a1,1,0,0,0-1-1h-30a1,1,0,0,1-.7-.3l-.42-.41a1,1,0,0,1-.29-.71V154.64a1,1,0,0,1,.29-.71l.42-.41a1,1,0,0,1,.7-.3H150"/><path class="cls-14" d="M150.11,155.5c3.22,0,3.22-5,0-5s-3.22,5,0,5Z"/><path class="cls-14" d="M93,229.28c3.22,0,3.22-5,0-5s-3.22,5,0,5Z"/><path class="cls-14" d="M58.72,190.56v.22a1.88,1.88,0,0,0,.22,1,2.16,2.16,0,0,0,1.32,1.32,1.88,1.88,0,0,0,1,.22l.67-.09a2.5,2.5,0,0,0,1.1-.64l.39-.51a2.43,2.43,0,0,0,.34-1.26v-.22a1.89,1.89,0,0,0-.21-1,1.85,1.85,0,0,0-.52-.8,1.82,1.82,0,0,0-.8-.52,1.8,1.8,0,0,0-1-.21l-.66.08a2.55,2.55,0,0,0-1.11.65l-.39.5a2.54,2.54,0,0,0-.34,1.27Z"/><path class="cls-14" d="M170.33,233.72h.23a1.88,1.88,0,0,0,1-.21,1.85,1.85,0,0,0,.8-.52,1.82,1.82,0,0,0,.52-.8,1.9,1.9,0,0,0,.22-1l-.09-.66a2.55,2.55,0,0,0-.65-1.11l-.5-.39a2.53,2.53,0,0,0-1.26-.34h-.23a1.88,1.88,0,0,0-1,.22,1.83,1.83,0,0,0-.8.51,1.85,1.85,0,0,0-.52.81,1.88,1.88,0,0,0-.22,1l.09.67a2.52,2.52,0,0,0,.65,1.1l.5.39a2.43,2.43,0,0,0,1.26.34Z"/><path class="cls-2" d="M197.67,174.21v73.35a1,1,0,0,0,1,1h42a1,1,0,0,0,1-1V223.33a1,1,0,0,0-1-1h-6.89a1,1,0,0,1-1-1V195.56a1,1,0,0,1,1-1h7.89V109.33a1,1,0,0,0-1-1h-7.23V76a1,1,0,0,0-1-1H227a1,1,0,0,1-1-1V67.11a1,1,0,0,0-1-1H148.43"/><path class="cls-3" d="M197.67,176.61c3.21,0,3.22-5,0-5s-3.23,5,0,5Z"/><path class="cls-3" d="M147.89,63.39h-.22a2.69,2.69,0,0,0-1.77.73,2,2,0,0,0-.52.81,1.83,1.83,0,0,0-.21,1l.09.66a2.44,2.44,0,0,0,.64,1.11l.5.39a2.57,2.57,0,0,0,1.27.34h.22a1.88,1.88,0,0,0,1-.22,2.16,2.16,0,0,0,1.32-1.32,1.88,1.88,0,0,0,.22-1l-.09-.67a2.5,2.5,0,0,0-.64-1.1l-.51-.39a2.43,2.43,0,0,0-1.26-.34Z"/><path class="cls-3" d="M233.22,110.39c3.22,0,3.22-5,0-5s-3.22,5,0,5Z"/><path class="cls-3" d="M241.89,196.61c3.22,0,3.22-5,0-5s-3.22,5,0,5Z"/><path class="cls-2" d="M233.22,107.89h-31a1,1,0,0,0-1,1v10.55"/><path class="cls-3" d="M201.25,121.94c3.22,0,3.22-5,0-5s-3.22,5,0,5Z"/><path class="cls-15" d="M109.27,226.78V195.11a1,1,0,0,0-1-1h-7.38a1,1,0,0,1-1-1V145.78a1,1,0,0,1,1-1h30.89a1,1,0,0,0,1-1V92.22a1,1,0,0,0-1-1H103.56a1,1,0,0,1-1-1V67.11a1,1,0,0,0-1-1H62.22a1,1,0,0,0-1,1v8.22a1,1,0,0,0,1,1H74a1,1,0,0,1,1,1v6.45a1,1,0,0,1-1,1H62.22a1,1,0,0,0-1,1v32.66a1,1,0,0,1-1,1H50.44a1,1,0,0,0-1,1V226.78"/><path class="cls-16" d="M107.57,224.4l-.17.17a1.85,1.85,0,0,0-.52.8,2.32,2.32,0,0,0,0,1.93,1.92,1.92,0,0,0,.52.8l.5.39a2.47,2.47,0,0,0,1.27.34l.66-.09a2.41,2.41,0,0,0,1.1-.64l.17-.17a1.85,1.85,0,0,0,.52-.8,2.32,2.32,0,0,0,0-1.93,1.92,1.92,0,0,0-.52-.8l-.5-.39a2.47,2.47,0,0,0-1.27-.34l-.66.09a2.41,2.41,0,0,0-1.1.64Z"/><path class="cls-16" d="M101.61,147.35h0l-.6.25h0l-.66.09h0l-.67-.09h0l-.6-.26h0l-.51-.39h0l-.39-.5h0l-.26-.6a0,0,0,0,1,0,0l-.09-.67v0l.09-.67a0,0,0,0,1,0,0l.26-.6v0l.39-.51h0l.51-.39h0l.6-.25h0l.66-.09h0l.66.09h0l.6.25h0a1.85,1.85,0,0,0-.93-.29,1.89,1.89,0,0,0-1,0,2.8,2.8,0,0,0-1.49,1.15l-.25.6a2.5,2.5,0,0,0,0,1.33l.25.59a2.48,2.48,0,0,0,.89.9,3,3,0,0,0,.61.26h0l.67.09a2.46,2.46,0,0,0,.67-.09h0l.6-.25h0a2.67,2.67,0,0,0,.91-.92,2.73,2.73,0,0,0,.26-.61,3.26,3.26,0,0,0,.09-.69v0a5.13,5.13,0,0,0-.09-.67v0a3.61,3.61,0,0,0-.26-.61,1.81,1.81,0,0,0-.4-.52l-.51-.39h0l-.6-.26h0l-.67-.09a2.62,2.62,0,0,0-1.28.35,1.85,1.85,0,0,0-.71.65,1.78,1.78,0,0,0-.44.85,1.86,1.86,0,0,0,0,1,1.9,1.9,0,0,0,.3.93l.39.51a2.5,2.5,0,0,0,1.1.64l.67.09a2.43,2.43,0,0,0,1.26-.34Z"/><path class="cls-16" d="M134.55,92.75h0l-.51.39h0l-.6.26h0l-.67.09h0l-.67-.09h0l-.59-.26h0l-.5-.39h0l-.39-.5h0l-.25-.6a.43.43,0,0,0,0,0l-.09-.66v.12l.09-.66s0,0,0,0l.25-.6v0l.39-.51h0l.5-.39h0l.59-.25h0l.66-.09h0l.67.09h0l.6.25h0l.51.4v0a1.93,1.93,0,0,0-.81-.51,2.58,2.58,0,0,0-2.73.51l-.39.51a2.43,2.43,0,0,0-.34,1.26l.09.67A2.5,2.5,0,0,0,131,93h0a2.76,2.76,0,0,0,.51.39h0l.6.25h0l.66.09h0l.67-.09h0l.3-.13.3-.12h0l.51-.39h0l.4-.51h0a4.66,4.66,0,0,0,.26-.61v0c0-.23.06-.47.09-.69v-.1a2.72,2.72,0,0,0-.36-1.34,2.83,2.83,0,0,0-.39-.52h0l-.5-.39h0l-.6-.26a2.13,2.13,0,0,0-.67-.09l-.33.05-.33,0h0l-.3.13-.3.13h0a2.25,2.25,0,0,0-.52.4,2.05,2.05,0,0,0-.52.81,2,2,0,0,0-.21,1,2,2,0,0,0,.21,1,2.05,2.05,0,0,0,.52.81l.51.39a2.53,2.53,0,0,0,1.26.34l.66-.09a2.53,2.53,0,0,0,1.11-.64Z"/><path class="cls-16" d="M47,226.71v.07a1.88,1.88,0,0,0,.22,1,1.85,1.85,0,0,0,.52.81,1.83,1.83,0,0,0,.8.51,1.88,1.88,0,0,0,1,.22l.67-.09a2.5,2.5,0,0,0,1.1-.64l.39-.51a2.43,2.43,0,0,0,.34-1.26v-.07a1.88,1.88,0,0,0-.22-1,2.3,2.3,0,0,0-1.32-1.32,1.88,1.88,0,0,0-1-.22l-.67.09a2.52,2.52,0,0,0-1.1.65l-.39.5a2.43,2.43,0,0,0-.34,1.26Z"/><path class="cls-16" d="M75.47,87.52h0l-.67.09s0,0,0,0l-.66-.09h0l-.6-.25h0l-.51-.39h0l-.39-.51h0l-.25-.6h0l-.09-.67h0l.09-.66h0l.25-.59h0l.39-.5h0L73.6,83h0l.6-.25h0l.66-.09h0l.67.09h0a1.86,1.86,0,0,0-1-.05,2.31,2.31,0,0,0-1.64.94,1.83,1.83,0,0,0-.44.85l-.09.67a2.43,2.43,0,0,0,.34,1.26l.39.5a2.52,2.52,0,0,0,1.1.65h0l.66.09h0a2.51,2.51,0,0,0,1.28-.35A2.54,2.54,0,0,0,77,83.86a2.51,2.51,0,0,0-2.19-1.25s0,0,0,0a4,4,0,0,0-.69.09,2.42,2.42,0,0,0-1.79,2.08,1.86,1.86,0,0,0,.05,1l.25.6a2.43,2.43,0,0,0,.9.9l.59.25a2.5,2.5,0,0,0,1.33,0Z"/><path class="cls-16" d="M62,63.64h0l-.33,0-.34,0H61.2l-.67.08h-.05l-.3.12-.3.13h0l-.51.4h0l-.39.5h0l-.25.6h0s-.09.66-.09.67a2,2,0,0,0,.09.68h0s.25.59.25.6h0l.19.25c-.23-.3.13.18.2.26h0a2.88,2.88,0,0,0,.52.4h0l.6.25h.06l.66.09h.09c.24,0,.48-.06.72-.1a1.71,1.71,0,0,0,.85-.45,1.9,1.9,0,0,0,.65-.7,1.79,1.79,0,0,0,.29-.93,1.85,1.85,0,0,0,0-1l-.25-.6a2.67,2.67,0,0,0-.9-.9l-.6-.25a2.5,2.5,0,0,0-1.33,0h0l.66-.08H61.2l.67.09-.06,0,.6.25h0l.51.39h0l.39.5h0l.25.6h0l.09.66h0l-.09.66h0l-.25.6h0l-.4.5h0l-.51.39h0l-.6.25h0l-.66.09h.13l-.67-.09h0a2,2,0,0,0,1,.05,1.9,1.9,0,0,0,.93-.3,1.93,1.93,0,0,0,.71-.65,1.78,1.78,0,0,0,.44-.85l.09-.66a2.43,2.43,0,0,0-.34-1.26l-.39-.51a2.5,2.5,0,0,0-1.1-.64Z"/><path class="cls-6" d="M118.83,68h.34a1.88,1.88,0,0,0,1-.22,1.83,1.83,0,0,0,.8-.51,2.83,2.83,0,0,0,.74-1.77l-.09-.66a2.5,2.5,0,0,0-.65-1.11l-.5-.39a2.53,2.53,0,0,0-1.26-.34h-.34a1.88,1.88,0,0,0-1,.22,1.83,1.83,0,0,0-.8.51,2.83,2.83,0,0,0-.74,1.77l.09.66a2.5,2.5,0,0,0,.65,1.11l.5.39a2.53,2.53,0,0,0,1.26.34Z"/><path class="cls-6" d="M46.83,57v.17a1.88,1.88,0,0,0,.22,1,2.3,2.3,0,0,0,1.32,1.32,1.88,1.88,0,0,0,1,.22l.67-.09a2.52,2.52,0,0,0,1.1-.65l.39-.5a2.43,2.43,0,0,0,.34-1.26V57a1.85,1.85,0,0,0-.21-1,2,2,0,0,0-.52-.81,2.83,2.83,0,0,0-1.77-.73l-.66.09a2.5,2.5,0,0,0-1.1.64l-.4.51A2.53,2.53,0,0,0,46.83,57Z"/><path class="cls-6" d="M37.83,84.83c3.22,0,3.23-5,0-5s-3.22,5,0,5Z"/><path class="cls-6" d="M61.17,136.83c3.21,0,3.22-5,0-5s-3.23,5,0,5Z"/><path class="cls-17" d="M37.83,153.22v89.22a1,1,0,0,0,1,1H75"/><path class="cls-18" d="M78.17,243.22V243a2.83,2.83,0,0,0-.74-1.77,1.83,1.83,0,0,0-.8-.51,1.88,1.88,0,0,0-1-.22l-.67.09a2.5,2.5,0,0,0-1.1.64l-.39.51a2.43,2.43,0,0,0-.34,1.26v.22a1.89,1.89,0,0,0,.21,1,2.3,2.3,0,0,0,1.32,1.32,1.89,1.89,0,0,0,1,.21l.66-.09a2.5,2.5,0,0,0,1.1-.64l.4-.51a2.53,2.53,0,0,0,.34-1.26Z"/><path class="cls-18" d="M37.89,150.5h-.22a2.83,2.83,0,0,0-1.77.73,2,2,0,0,0-.52.81,1.85,1.85,0,0,0-.21,1l.09.66a2.39,2.39,0,0,0,.64,1.11l.5.39a2.57,2.57,0,0,0,1.27.34h.22a1.88,1.88,0,0,0,1-.22A2.16,2.16,0,0,0,40.17,154a1.86,1.86,0,0,0,.22-1l-.09-.66a2.48,2.48,0,0,0-.64-1.11l-.51-.39a2.53,2.53,0,0,0-1.26-.34Z"/></g></svg>