<?xml version="1.0" encoding="UTF-8" standalone="no"?>
<svg
   xmlns:dc="http://purl.org/dc/elements/1.1/"
   xmlns:cc="http://creativecommons.org/ns#"
   xmlns:rdf="http://www.w3.org/1999/02/22-rdf-syntax-ns#"
   xmlns:svg="http://www.w3.org/2000/svg"
   xmlns="http://www.w3.org/2000/svg"
   xmlns:sodipodi="http://sodipodi.sourceforge.net/DTD/sodipodi-0.dtd"
   xmlns:inkscape="http://www.inkscape.org/namespaces/inkscape"
   id="Layer_1"
   data-name="Layer 1"
   viewBox="0 0 350 60"
   version="1.1"
   sodipodi:docname="Header.svg"
   inkscape:export-filename="/home/bhasher/Documents/CodeWe/src/publics/img/SVG/Header.png"
   inkscape:export-xdpi="1000.1305"
   inkscape:export-ydpi="1000.1305"
   inkscape:version="0.92.5 (2060ec1f9f, 2020-04-08)">
  <metadata
     id="metadata129">
    <rdf:RDF>
      <cc:Work
         rdf:about="">
        <dc:format>image/svg+xml</dc:format>
        <dc:type
           rdf:resource="http://purl.org/dc/dcmitype/StillImage" />
      </cc:Work>
    </rdf:RDF>
  </metadata>
  <sodipodi:namedview
     pagecolor="#ffffff"
     bordercolor="#666666"
     borderopacity="1"
     objecttolerance="10"
     gridtolerance="10"
     guidetolerance="10"
     inkscape:pageopacity="0"
     inkscape:pageshadow="2"
     inkscape:window-width="1856"
     inkscape:window-height="1043"
     id="namedview127"
     showgrid="false"
     inkscape:zoom="2.8041835"
     inkscape:cx="96.902949"
     inkscape:cy="111.05125"
     inkscape:window-x="1984"
     inkscape:window-y="0"
     inkscape:window-maximized="1"
     inkscape:current-layer="Layer_1" />
  <defs
     id="defs4">
    <style
       id="style2">.cls-1,.cls-11,.cls-13,.cls-15,.cls-2,.cls-4,.cls-7,.cls-9{fill:none;stroke-miterlimit:10;}.cls-1{stroke:#063;}.cls-2{stroke:#1d1d1b;}.cls-3{fill:#1d1d1b;}.cls-4{stroke:#bd1622;}.cls-5{fill:#bd1622;}.cls-6{fill:#063;}.cls-7{stroke:#1d70b7;}.cls-8{fill:#1d70b7;}.cls-9{stroke:#2d2e82;stroke-width:0.99px;}.cls-10{fill:#2d2e82;}.cls-11{stroke:#662482;}.cls-12{fill:#662482;}.cls-13{stroke:#312782;}.cls-14{fill:#312782;}.cls-15{stroke:#e5332a;}.cls-16{fill:#e5332a;}</style>
  </defs>
  <path
     class="cls-1"
     d="m 343.51014,55.658913 h -7.81701 a 1.0021801,0.92271936 0 0 1 -1.00218,-0.92272 V 0.53565813"
     id="path6"
     inkscape:connector-curvature="0"
     style="fill:none;stroke:#006633;stroke-width:0.96162939;stroke-miterlimit:10" />
  <path
     class="cls-1"
     d="M30.27,13.29H7.43a1,1,0,0,1-1-1V0"
     id="path8" />
  <path
     class="cls-2"
     d="M44.1,0c0,20.52,0,44.18,0,60"
     id="path10" />
  <path
     class="cls-2"
     d="M62.35,60V9.72a1,1,0,0,1,1-1H77.52a1,1,0,0,0,1-1V3.54a1,1,0,0,0-1-1H64.2"
     id="path12" />
  <path
     class="cls-3"
     d="M64.2,47.27l0,0a2.83,2.83,0,0,0-1.77-.74,1.88,1.88,0,0,0-1,.22,1.85,1.85,0,0,0-.81.52l-.39.5A2.53,2.53,0,0,0,59.91,49l.09.67a2.5,2.5,0,0,0,.64,1.1l0,0a1.85,1.85,0,0,0,.81.52,2.32,2.32,0,0,0,1.93,0,1.82,1.82,0,0,0,.8-.52l.39-.5A2.44,2.44,0,0,0,64.93,49l-.09-.66a2.5,2.5,0,0,0-.64-1.1Z"
     id="path14" />
  <path
     class="cls-3"
     d="M64.39,0h0a1.86,1.86,0,0,0-1,.22,1.93,1.93,0,0,0-.81.51,2.05,2.05,0,0,0-.52.81,2,2,0,0,0-.21,1l.09.67a2.5,2.5,0,0,0,.64,1.1l.51.39A2.43,2.43,0,0,0,64.37,5h0a2,2,0,0,0,1-.21,2,2,0,0,0,.81-.52,2.05,2.05,0,0,0,.52-.81,1.93,1.93,0,0,0,.21-1l-.09-.66A2.53,2.53,0,0,0,66.16.68L65.65.29A2.53,2.53,0,0,0,64.39,0Z"
     id="path16" />
  <line
     class="cls-4"
     x1="109.27"
     x2="109.27"
     y2="3.9"
     id="line18" />
  <path
     class="cls-4"
     d="M339.73,18.34H324.09a1,1,0,0,1-1-1V.08"
     id="path20" />
  <line
     class="cls-4"
     x1="54.22"
     y1="59.97"
     x2="54.22"
     id="line22" />
  <line
     class="cls-4"
     x1="141"
     y1="52.43"
     x2="141"
     y2="59.97"
     id="line24" />
  <path
     class="cls-5"
     d="M109.56,6.69c3.22,0,3.22-5,0-5s-3.22,5,0,5Z"
     id="path26" />
  <path
     class="cls-5"
     d="M143.52,53.43l.12-.35a1.85,1.85,0,0,0,0-1,1.79,1.79,0,0,0-.29-.93,1.93,1.93,0,0,0-.65-.71,1.78,1.78,0,0,0-.85-.44l-.66-.09a2.43,2.43,0,0,0-1.26.34l-.51.39a2.5,2.5,0,0,0-.64,1.1l-.12.35a1.89,1.89,0,0,0,0,1A1.85,1.85,0,0,0,139,54a2.87,2.87,0,0,0,1.5,1.15l.66.09a2.53,2.53,0,0,0,1.26-.34l.51-.39a2.53,2.53,0,0,0,.64-1.11Z"
     id="path28" />
  <path
     class="cls-5"
     d="M339.73,21.12c3.22,0,3.22-5,0-5s-3.22,5,0,5Z"
     id="path30" />
  <path
     class="cls-1"
     d="M128.92,0V18.47a1,1,0,0,1-1,1H110.56a1,1,0,0,0-1,1V60"
     id="path32" />
  <path
     class="cls-1"
     d="M253.52.08V17.34a1,1,0,0,0,1,1h47.92a1,1,0,0,0,1-1V.08"
     id="path34" />
  <line
     class="cls-1"
     x1="178.84"
     y1="60.08"
     x2="178.84"
     id="line36" />
  <path
     class="cls-1"
     d="M154.23,52.42c.07.07.08,3.84.06,7.66"
     id="path38" />
  <path
     class="cls-1"
     d="M109.56,39.88h-11a1,1,0,0,1-1-1V4.81a1,1,0,0,0-1-1H87.82a1,1,0,0,0-1,1V42.56"
     id="path40" />
  <path
     class="cls-6"
     d="M86.7,44.71h.12a1.88,1.88,0,0,0,1-.21,2,2,0,0,0,.81-.52,2.83,2.83,0,0,0,.73-1.77l-.09-.66a2.53,2.53,0,0,0-.64-1.11l-.51-.39a2.53,2.53,0,0,0-1.26-.34H86.7a1.88,1.88,0,0,0-1,.22,2.16,2.16,0,0,0-1.32,1.32,1.88,1.88,0,0,0-.22,1l.09.67a2.5,2.5,0,0,0,.64,1.1l.51.39a2.43,2.43,0,0,0,1.26.34Z"
     id="path42" />
  <path
     class="cls-6"
     d="M97.55,6.31h.12a1.88,1.88,0,0,0,1-.22,1.77,1.77,0,0,0,.8-.52,1.77,1.77,0,0,0,.52-.8,1.88,1.88,0,0,0,.22-1l-.09-.67A2.52,2.52,0,0,0,99.43,2l-.5-.39a2.43,2.43,0,0,0-1.26-.34h-.12a1.83,1.83,0,0,0-1,.21,2,2,0,0,0-.81.52,1.92,1.92,0,0,0-.52.8,2,2,0,0,0-.21,1l.09.66a2.45,2.45,0,0,0,.64,1.1l.51.4a2.53,2.53,0,0,0,1.26.34Z"
     id="path44" />
  <path
     class="cls-6"
     d="M111.33,37.88l-.12-.12a1.83,1.83,0,0,0-.8-.51,2.23,2.23,0,0,0-1.93,0,1.83,1.83,0,0,0-.8.51l-.39.51a2.43,2.43,0,0,0-.34,1.26l.08.66a2.5,2.5,0,0,0,.65,1.11l.11.11a1.85,1.85,0,0,0,.81.52,2.23,2.23,0,0,0,1.93,0,1.82,1.82,0,0,0,.8-.52l.39-.5a2.43,2.43,0,0,0,.34-1.26L112,39a2.5,2.5,0,0,0-.64-1.1Z"
     id="path46" />
  <path
     class="cls-6"
     d="M151.73,52.59v.12a2.83,2.83,0,0,0,.74,1.77,1.83,1.83,0,0,0,.8.51,1.88,1.88,0,0,0,1,.22l.67-.09a2.5,2.5,0,0,0,1.1-.64l.39-.51a2.43,2.43,0,0,0,.34-1.26v-.12a1.88,1.88,0,0,0-.21-1,1.85,1.85,0,0,0-.52-.8,1.82,1.82,0,0,0-.8-.52,1.9,1.9,0,0,0-1-.22l-.66.09a2.52,2.52,0,0,0-1.1.65l-.4.5a2.53,2.53,0,0,0-.34,1.26Z"
     id="path48" />
  <path
     class="cls-6"
     d="M303.46,8.31c3.22,0,3.23-5,0-5s-3.22,5,0,5Z"
     id="path50" />
  <line
     class="cls-7"
     x1="139.65"
     x2="139.65"
     y2="13.87"
     id="line52" />
  <path
     class="cls-7"
     d="M276.85.08V3.75a1,1,0,0,0,1,1h13.86a1,1,0,0,0,1-1V.08"
     id="path54" />
  <path
     class="cls-7"
     d="M117.69,0V12.75a1,1,0,0,1-1,1H76.15a1,1,0,0,0-1,1V48a1,1,0,0,0,1,1h54a1,1,0,0,0,1-1V26.1a1,1,0,0,1,1-1h23.38V0"
     id="path56" />
  <line
     class="cls-7"
     x1="314.67"
     y1="5.34"
     x2="314.67"
     y2="0.08"
     id="line58" />
  <path
     class="cls-7"
     d="M245.71.08v37.5a1,1,0,0,0,1,1h86.71"
     id="path60" />
  <path
     class="cls-7"
     d="M155.52,25.1h30.14a1,1,0,0,0,1-1V0"
     id="path62" />
  <line
     class="cls-7"
     x1="195.25"
     x2="195.25"
     y2="60.08"
     id="line64" />
  <path
     class="cls-7"
     d="M246,6.39h-7.89a1,1,0,0,1-1-1V.08"
     id="path66" />
  <path
     class="cls-8"
     d="M312.25,5.45v.12a1.88,1.88,0,0,0,.22,1,1.85,1.85,0,0,0,.52.81,1.83,1.83,0,0,0,.8.51,1.88,1.88,0,0,0,1,.22l.67-.09a2.5,2.5,0,0,0,1.1-.64l.39-.51a2.43,2.43,0,0,0,.34-1.26V5.45a1.78,1.78,0,0,0-.21-1,1.77,1.77,0,0,0-.52-.8,1.77,1.77,0,0,0-.8-.52,1.9,1.9,0,0,0-1-.22l-.66.09a2.52,2.52,0,0,0-1.1.65l-.39.5a2.54,2.54,0,0,0-.35,1.26Z"
     id="path68" />
  <path
     class="cls-8"
     d="M75.39,50.89c3.22,0,3.22-5,0-5s-3.22,5,0,5Z"
     id="path70" />
  <path
     class="cls-8"
     d="M139.42,10.79h-.23a1.89,1.89,0,0,0-1,.21,2.3,2.3,0,0,0-1.32,1.32,1.89,1.89,0,0,0-.21,1l.09.66a2.45,2.45,0,0,0,.64,1.1l.51.4a2.53,2.53,0,0,0,1.26.34h.23a2.83,2.83,0,0,0,1.77-.74,2,2,0,0,0,.52-.8,2,2,0,0,0,.21-1l-.09-.67a2.5,2.5,0,0,0-.64-1.1l-.51-.39a2.43,2.43,0,0,0-1.26-.34Z"
     id="path72" />
  <path
     class="cls-8"
     d="M155.52,11.7h.11a1.8,1.8,0,0,0,1-.21,1.82,1.82,0,0,0,.8-.52,1.85,1.85,0,0,0,.52-.8,1.89,1.89,0,0,0,.21-1L158,8.54a2.5,2.5,0,0,0-.64-1.1l-.51-.39a2.54,2.54,0,0,0-1.26-.35h-.11a1.9,1.9,0,0,0-1,.22,1.77,1.77,0,0,0-.8.52,1.77,1.77,0,0,0-.52.8,1.78,1.78,0,0,0-.21,1l.09.67a2.41,2.41,0,0,0,.64,1.1l.5.39a2.44,2.44,0,0,0,1.27.34Z"
     id="path74" />
  <path
     class="cls-8"
     d="M155.63,22.33h-.23a2.83,2.83,0,0,0-1.77.74,2,2,0,0,0-.52.8,2,2,0,0,0-.21,1l.09.67a2.5,2.5,0,0,0,.64,1.1l.51.39a2.43,2.43,0,0,0,1.26.34h.23a1.8,1.8,0,0,0,1-.21,1.82,1.82,0,0,0,.8-.52,1.85,1.85,0,0,0,.52-.8,1.89,1.89,0,0,0,.21-1l-.09-.66a2.5,2.5,0,0,0-.64-1.1l-.51-.39a2.54,2.54,0,0,0-1.26-.35Z"
     id="path76" />
  <path
     class="cls-8"
     d="M333.53,41.54c3.22,0,3.23-5,0-5s-3.22,5,0,5Z"
     id="path78" />
  <path
     class="cls-7"
     d="M141,39.65h28.52a1,1,0,0,0,1-1V10.2a1,1,0,0,0-1-1H155.63"
     id="path80" />
  <path
     class="cls-8"
     d="M143,37.87l-.08-.08a1.82,1.82,0,0,0-.8-.52,2.32,2.32,0,0,0-1.93,0,1.85,1.85,0,0,0-.81.52l-.39.5a2.54,2.54,0,0,0-.34,1.27l.09.66a2.5,2.5,0,0,0,.64,1.1l.09.09a1.83,1.83,0,0,0,.8.51,2.23,2.23,0,0,0,1.93,0,1.83,1.83,0,0,0,.8-.51l.39-.51a2.54,2.54,0,0,0,.35-1.26l-.09-.67a2.52,2.52,0,0,0-.65-1.1Z"
     id="path82" />
  <path
     class="cls-9"
     d="M347,39.86V26.52a1,1,0,0,0-1-1h-74.7"
     id="path84" />
  <path
     class="cls-10"
     d="M346.77,37.8h-.12a1.88,1.88,0,0,0-1,.22,1.83,1.83,0,0,0-.8.51,1.85,1.85,0,0,0-.52.81,1.88,1.88,0,0,0-.22,1l.09.67a2.52,2.52,0,0,0,.65,1.1l.5.39a2.43,2.43,0,0,0,1.26.34h.12a2,2,0,0,0,1-.21,2,2,0,0,0,.8-.52,2.83,2.83,0,0,0,.74-1.77l-.09-.66a2.5,2.5,0,0,0-.65-1.11l-.5-.39a2.53,2.53,0,0,0-1.26-.34Z"
     id="path86" />
  <path
     class="cls-10"
     d="M271.32,28c3.22,0,3.22-5,0-5s-3.22,5,0,5Z"
     id="path88" />
  <path
     class="cls-11"
     d="M30.27,60V33.19a1,1,0,0,1,.29-.71l.41-.41a1,1,0,0,1,.71-.29h87.59"
     id="path90" />
  <path
     class="cls-12"
     d="M119.38,34.06c3.21,0,3.22-5,0-5s-3.23,5,0,5Z"
     id="path92" />
  <path
     class="cls-2"
     d="M221.43.08V12.19a1,1,0,0,0,1,1h7.22V45.52a1,1,0,0,0,1,1h5.47a1,1,0,0,1,1,1v6.89a1,1,0,0,0,1,1h76.55"
     id="path94" />
  <line
     class="cls-2"
     x1="210.93"
     y1="60.08"
     x2="210.93"
     id="line96" />
  <line
     class="cls-2"
     x1="166.93"
     y1="52.77"
     x2="166.93"
     y2="60.08"
     id="line98" />
  <path
     class="cls-3"
     d="M166.93,55.17c3.22,0,3.22-5,0-5s-3.22,5,0,5Z"
     id="path100" />
  <path
     class="cls-3"
     d="M315.21,58.13h.22a1.8,1.8,0,0,0,1-.21,1.82,1.82,0,0,0,.8-.52,1.85,1.85,0,0,0,.52-.8,1.89,1.89,0,0,0,.21-1l-.09-.66a2.5,2.5,0,0,0-.64-1.1l-.51-.39a2.54,2.54,0,0,0-1.26-.35h-.22a2.83,2.83,0,0,0-1.77.74,1.83,1.83,0,0,0-.51.8,1.88,1.88,0,0,0-.22,1l.09.67a2.5,2.5,0,0,0,.64,1.1l.51.39a2.43,2.43,0,0,0,1.26.34Z"
     id="path102" />
  <path
     class="cls-3"
     d="M229.88,16.13c3.21,0,3.22-5,0-5s-3.23,5,0,5Z"
     id="path104" />
  <path
     class="cls-2"
     d="M229.88,12.63h31a1,1,0,0,0,1-1V-.5"
     id="path106" />
  <line
     class="cls-13"
     x1="18.71"
     x2="18.71"
     y2="59.97"
     id="line108" />
  <path
     class="cls-13"
     d="M330.32.08V29.3"
     id="path110" />
  <path
     class="cls-13"
     d="M69.15,60V24.33a1,1,0,0,1,1-1H101a1,1,0,0,0,1-1V0"
     id="path112" />
  <path
     class="cls-14"
     d="M70.88,25.9h0l-.59.25h0l-.67.09h0L69,26.15h0l-.59-.25h0l-.5-.39h0L67.5,25v0l-.25-.6s0,0,0,0l-.09-.66v0l.09-.66v0l.25-.59h0l.39-.51h0l.5-.39h0l.59-.26h0l.66-.09h0l.67.09h0l.59.25h0a1.9,1.9,0,0,0-.93-.3,1.86,1.86,0,0,0-1,.05,1.78,1.78,0,0,0-.85.44,1.93,1.93,0,0,0-.65.71l-.25.59a2.5,2.5,0,0,0,0,1.33l.25.6a2.59,2.59,0,0,0,.9.9,2.7,2.7,0,0,0,.61.25h0l.66.09a2.59,2.59,0,0,0,.68-.09h0l.6-.25h0a2.48,2.48,0,0,0,.91-.91,2,2,0,0,0,.26-.62,3.19,3.19,0,0,0,.1-.69h0c0-.23-.06-.45-.09-.68h0a4.6,4.6,0,0,0-.25-.61,1.89,1.89,0,0,0-.41-.52s-.5-.39-.5-.4h0l-.6-.25h0l-.67-.09a2.52,2.52,0,0,0-1.29.35,1.87,1.87,0,0,0-.7.64,1.94,1.94,0,0,0-.45.85,1.89,1.89,0,0,0,0,1,1.85,1.85,0,0,0,.29.93l.4.5a2.52,2.52,0,0,0,1.1.65l.66.09a2.58,2.58,0,0,0,1.27-.35Z"
     id="path114" />
  <path
     class="cls-14"
     d="M328.55,28.78h0l.51-.4h0l.6-.25h0l.67-.09h0l.67.09h0l.6.25h0l.5.39h0l.39.51v0l.25.6a.43.43,0,0,1,0-.05l.09.66a.24.24,0,0,1,0-.12l-.09.66a.43.43,0,0,0,0-.05l-.25.6h0l-.39.5h0l-.5.39h0l-.6.26h0l-.67.09h0l-.67-.09h0l-.6-.26h0l-.51-.39h0a2.05,2.05,0,0,0,.81.52,2,2,0,0,0,1,.21,1.93,1.93,0,0,0,1-.21,2.05,2.05,0,0,0,.81-.52l.39-.51a2.43,2.43,0,0,0,.34-1.26l-.09-.66a2.48,2.48,0,0,0-.64-1.11h0a2.43,2.43,0,0,0-.51-.4h0l-.6-.26h0l-.66-.09h0l-.66.09h0l-.3.13-.3.13h0l-.5.39h0s-.38.5-.39.51h0a3.61,3.61,0,0,0-.26.61v0c0,.23-.06.47-.09.69a.41.41,0,0,0,0,.11,2.72,2.72,0,0,0,.36,1.34,2.76,2.76,0,0,0,.39.51h0l.5.39h0l.6.25a1.85,1.85,0,0,0,.66.09l.34-.05.33,0h0l.3-.13.29-.12h0a2.25,2.25,0,0,0,.52-.4,2.83,2.83,0,0,0,.73-1.77,1.88,1.88,0,0,0-.22-1,1.83,1.83,0,0,0-.51-.8l-.51-.4a2.53,2.53,0,0,0-1.26-.34l-.66.09a2.5,2.5,0,0,0-1.11.65Z"
     id="path116" />
  <path
     class="cls-6"
     d="M344.27,53.52h-.34a1.88,1.88,0,0,0-1,.22,1.85,1.85,0,0,0-.81.52,1.83,1.83,0,0,0-.51.8,1.88,1.88,0,0,0-.22,1l.09.67a2.5,2.5,0,0,0,.64,1.1l.51.39a2.43,2.43,0,0,0,1.26.34h.34a1.88,1.88,0,0,0,1-.21,1.85,1.85,0,0,0,.8-.52,1.82,1.82,0,0,0,.52-.8,1.9,1.9,0,0,0,.22-1l-.09-.66a2.46,2.46,0,0,0-.65-1.1l-.5-.4a2.53,2.53,0,0,0-1.26-.34Z"
     id="path118" />
  <path
     class="cls-6"
     d="M30.43,15.39c3.22,0,3.22-5,0-5s-3.22,5,0,5Z"
     id="path120" />
  <line
     class="cls-15"
     x1="7.1"
     y1="31.78"
     x2="7.1"
     y2="59.97"
     id="line122" />
  <path
     class="cls-16"
     d="M7.15,29.06H6.93a1.78,1.78,0,0,0-1,.21,1.85,1.85,0,0,0-.81.52,1.83,1.83,0,0,0-.51.8,1.9,1.9,0,0,0-.22,1l.09.66a2.5,2.5,0,0,0,.64,1.1l.51.39a2.54,2.54,0,0,0,1.26.35h.22a1.9,1.9,0,0,0,1-.22,1.77,1.77,0,0,0,.8-.52,1.77,1.77,0,0,0,.52-.8,1.78,1.78,0,0,0,.21-1l-.08-.67a2.52,2.52,0,0,0-.65-1.1l-.5-.39a2.44,2.44,0,0,0-1.27-.34Z"
     id="path124" />
</svg>
