<svg xmlns="http://www.w3.org/2000/svg" viewBox="0 0 100 100"><defs><style>.cls-1,.cls-3,.cls-5,.cls-7{fill:none;stroke-miterlimit:10;stroke-width:3px;}.cls-1{stroke:#be1622;}.cls-2{fill:#be1622;}.cls-3{stroke:#063;}.cls-4{fill:#063;}.cls-5{stroke:#1d71b8;}.cls-6{fill:#1d71b8;}.cls-7{stroke:#312783;}.cls-8{fill:#312783;}</style></defs><g id="Circuit"><path class="cls-1" d="M93.17,75.54v9.83a1,1,0,0,1-1,1H7.81a1,1,0,0,1-.71-.29l-.42-.42a1,1,0,0,1-.29-.7V5.84a1,1,0,0,1,1-1H58.51a1,1,0,0,1,1,1V27"/><path class="cls-2" d="M59.79,32.3a5,5,0,1,0-5-5,5.05,5.05,0,0,0,5,5Z"/><path class="cls-2" d="M6.32,21.8a5,5,0,0,0,0-10,5,5,0,0,0,0,10Z"/><path class="cls-2" d="M98.09,77.2l.12-.35a5.62,5.62,0,0,0-.5-3.85,5.67,5.67,0,0,0-3-2.3l-1.33-.18a5,5,0,0,0-2.52.69l-1,.78a4.89,4.89,0,0,0-1.28,2.21l-.12.34A5.64,5.64,0,0,0,89,78.4a5.67,5.67,0,0,0,3,2.3l1.33.17a5,5,0,0,0,2.53-.68l1-.78a4.89,4.89,0,0,0,1.28-2.21Z"/><line class="cls-1" x1="6.32" y1="16.8" x2="40.03" y2="16.8"/><path class="cls-2" d="M39.79,21.57a5,5,0,1,0-5-5,5.1,5.1,0,0,0,5,5Z"/><path class="cls-3" d="M100.07,4.84H80.15a1,1,0,0,0-1,1V41.57a1,1,0,0,1-1,1H60.79a1,1,0,0,0-1,1V100"/><path class="cls-4" d="M63.26,59.22l-.12-.12a3.69,3.69,0,0,0-1.61-1,4.52,4.52,0,0,0-3.85,0,3.69,3.69,0,0,0-1.61,1l-.78,1a5,5,0,0,0-.68,2.53L54.78,64a5,5,0,0,0,1.29,2.2l.12.12a3.69,3.69,0,0,0,1.61,1,3.62,3.62,0,0,0,1.92.43,3.68,3.68,0,0,0,1.93-.43,3.75,3.75,0,0,0,1.61-1l.78-1a5,5,0,0,0,.68-2.53l-.18-1.33a4.91,4.91,0,0,0-1.28-2.2Z"/><path class="cls-4" d="M79.06,22.38a5,5,0,1,0-5-5,5.05,5.05,0,0,0,5,5Z"/><path class="cls-5" d="M67.85,17.85v18a1,1,0,0,1-1,1H26.31a1,1,0,0,0-1,1V71.12a1,1,0,0,0,1,1h54a1,1,0,0,0,1-1V49.2a1,1,0,0,1,1-1H100"/><path class="cls-6" d="M72.77,17.73v-.12a3.74,3.74,0,0,0-.43-1.92,3.78,3.78,0,0,0-1-1.61,3.75,3.75,0,0,0-1.61-1,3.78,3.78,0,0,0-1.93-.44l-1.33.18a5.05,5.05,0,0,0-2.21,1.29l-.78,1a5,5,0,0,0-.68,2.52v.12a3.77,3.77,0,0,0,.43,1.93,3.84,3.84,0,0,0,1,1.61,3.84,3.84,0,0,0,1.61,1,3.77,3.77,0,0,0,1.93.43l1.33-.18a4.94,4.94,0,0,0,2.21-1.28l.78-1a5,5,0,0,0,.68-2.53Z"/><path class="cls-6" d="M25.55,76.5a5,5,0,1,0-5-5,5.06,5.06,0,0,0,5,5Z"/><path class="cls-7" d="M28.69,100V96.77a1,1,0,0,0-1-1H20.31a1,1,0,0,1-1-1V47.44a1,1,0,0,1,1-1H51.2a1,1,0,0,0,1-1V0"/><path class="cls-8" d="M22.3,51.17h0l-1.2.5h0l-1.33.17h0l-1.33-.17h0l-1.19-.51h0l-1-.78h0l-.78-1h0L15,48.2s0,0,0,0l-.18-1.32v0L15,45.6a0,0,0,0,0,0,0l.5-1.2v0l.79-1h0l1-.78h0l1.2-.5h0L19.8,42h0l1.33.18h0l1.2.5h0a3.72,3.72,0,0,0-1.86-.6,3.78,3.78,0,0,0-2,.09,3.89,3.89,0,0,0-1.7.9,3.75,3.75,0,0,0-1.28,1.4L15,45.64a5,5,0,0,0,0,2.66l.51,1.2a5,5,0,0,0,1.79,1.79,5.17,5.17,0,0,0,1.21.51h0L19.8,52a5,5,0,0,0,1.33-.18h0l1.19-.5h0a5.2,5.2,0,0,0,1.8-1.81,4.53,4.53,0,0,0,.52-1.22,6.85,6.85,0,0,0,.18-1.35v0c0-.45-.11-.89-.18-1.34h0a7.91,7.91,0,0,0-.5-1.21,3.58,3.58,0,0,0-.8-1l-1-.79h0L21.14,42h0l-1.33-.18a5.19,5.19,0,0,0-2.55.69,3.86,3.86,0,0,0-1.4,1.29,3.89,3.89,0,0,0-.9,1.7,3.78,3.78,0,0,0-.09,2,3.72,3.72,0,0,0,.6,1.86l.78,1a4.91,4.91,0,0,0,2.2,1.28l1.33.18a5,5,0,0,0,2.53-.68Z"/></g></svg>